<svg id="Capa_1" enable-background="new 0 0 512 512" height="512" viewBox="0 0 512 512" width="512" xmlns="http://www.w3.org/2000/svg"><g><g><path d="m414.839 116.872v-61.788c0-19.376-15.707-35.084-35.084-35.084h-334.671c-19.376 0-35.084 15.708-35.084 35.084v302.642c0 19.376 15.708 35.084 35.084 35.084h50.384" fill="#c193dc"/><path d="m502 436.745v-282.471c0-19.376-15.707-35.084-35.084-35.084h-334.671c-19.376 0-35.084 15.708-35.084 35.084v282.471" fill="#faf7f5"/><path d="m97.161 436.745v20.172c0 19.376 15.708 35.084 35.084 35.084h334.671c19.377-.001 35.084-15.708 35.084-35.085v-20.172" fill="#ccf5fc"/><g><circle cx="261.916" cy="216.383" fill="#fff7bf" r="43.03"/></g><g><path d="m280.334 369.088-55.034-59.396-117.724 127.053h131.984" fill="#b8ecbc"/><path d="m222.533 436.745 134.526-152.079 134.526 152.079" fill="#d0f2d2"/></g></g><g><path d="m466.916 109.19h-42.077v-54.107c0-24.859-20.225-45.083-45.084-45.083h-334.671c-24.859 0-45.084 20.225-45.084 45.083v302.643c0 24.859 20.225 45.083 45.084 45.083h42.077v54.106c0 24.859 20.225 45.084 45.084 45.084h334.671c24.859.001 45.084-20.224 45.084-45.083v-302.642c0-24.859-20.225-45.084-45.084-45.084zm0 20c13.831 0 25.084 11.252 25.084 25.083v267.847l-127.451-144.08c-1.898-2.146-4.625-3.375-7.49-3.375s-5.592 1.229-7.49 3.375l-68.36 77.279-48.574-52.424c-1.893-2.042-4.551-3.204-7.335-3.204s-5.442 1.161-7.335 3.203l-110.804 119.585v-268.205c0-13.831 11.253-25.083 25.084-25.083h334.671zm-199.024 241.183-49.865 56.371h-87.552l94.825-102.338zm-180.731-216.099v228.536h-42.077c-13.831 0-25.084-11.253-25.084-25.084v-302.643c0-13.831 11.253-25.083 25.084-25.083h334.671c13.831 0 25.084 11.252 25.084 25.083v54.107h-272.594c-24.859 0-45.084 20.225-45.084 45.084zm379.755 327.726h-334.671c-13.831 0-25.084-11.252-25.084-25.084v-10.18c.138.006.276.009.415.009h216.454c5.522 0 10-4.477 10-10s-4.478-10-10-10h-79.301l112.33-126.986 112.33 126.986h-54.946c-5.522 0-10 4.477-10 10s4.478 10 10 10h77.557v10.171c0 13.832-11.253 25.084-25.084 25.084z"/><g><path d="m369.42 446.74c-4.174 0-7.985-2.681-9.402-6.604-1.378-3.815-.249-8.236 2.808-10.911 3.277-2.868 8.171-3.259 11.871-.97 3.518 2.176 5.36 6.477 4.51 10.525-.963 4.583-5.096 7.96-9.787 7.96z"/></g><path d="m261.916 269.413c-29.241 0-53.03-23.789-53.03-53.03s23.789-53.03 53.03-53.03 53.03 23.789 53.03 53.03-23.789 53.03-53.03 53.03zm0-86.06c-18.213 0-33.03 14.817-33.03 33.03s14.817 33.03 33.03 33.03 33.03-14.817 33.03-33.03-14.817-33.03-33.03-33.03z"/></g></g></svg>